<svg viewBox="0 0 517.2161600000001 329.0273262032086" id="Layer_1" xmlns="http://www.w3.org/2000/svg" style="max-height: 500px" width="517.2161600000001" height="329.0273262032086"><defs><style>.cls-1{fill:#fff;}.cls-2{fill:#166435;}</style></defs><polyline points="103.5 214.95 68.43 149.97 51.99 253.75 3.77 253.75 34.81 65.35 82.47 64.8 115.32 135.87 170.77 65.35 218.9 65.35 187.85 253.75 139.64 253.75 156.73 150.63" class="cls-2"/><path d="M359.67,116.44c-2.57-10.43-4.77-24.93-13.59-34.66-1.49-1.64-1.46-3.59-.64-5.12-1.77-1.48-3.69-2.82-5.74-4.04-8.21-4.85-17.92-7.28-29.12-7.28h-80.35l-31.04,188.41h48.7l10.9-66.15h31.65c11.2,0,21.71-2.42,31.52-7.28,9.81-4.85,18.1-11.86,24.89-21.04,6.78-9.17,11.23-20.11,13.32-32.81.39-2.38.68-4.7.87-6.95-.79-.71-1.05-1.78-1.37-3.09h0ZM311.95,126.48c-.84,5.12-2.52,9.39-5.04,12.83-2.52,3.44-5.49,6-8.93,7.67-3.44,1.68-7.03,2.51-10.76,2.51h-22.16l7.59-46.04h22.16c3.73,0,7.05.84,9.94,2.51,2.89,1.68,5.02,4.23,6.41,7.67s1.65,7.72.81,12.83h0l-.02.02Z" class="cls-2"/><path d="M501.52,109.28l7.24-43.93h-128.32l-7.04,42.71c4.4,3.03,5.5,9.36,6.15,14.28.85,6.48,1.13,13.27,1.06,19.8-.11,10.55-2.14,20.67-4.37,30.93-1.9,8.77-3.23,17.64-5.36,26.35.22.91.17,1.91-.26,2.95-6.37,15.05-13.67,29.69-20.12,44.7l-1.1,6.69h48.7l11.03-66.95h75.97l7.24-43.93h-75.97l5.54-33.61h79.62,0Z" class="cls-2"/><path d="M205.66,49.76c3.19-5.26,6.74-10.33,10.64-15.17,3.99-4.76,8.33-9.25,13.06-13.39,4.76-4.11,9.99-7.7,15.54-10.8,1.41-.73,2.79-1.53,4.23-2.21l4.37-1.97c2.98-1.15,5.98-2.32,9.1-3.15l2.32-.68,2.37-.5c1.58-.3,3.15-.73,4.76-.9,1.6-.21,3.2-.45,4.81-.63l4.85-.31c6.49-.22,13.05.31,19.46,1.64,6.44,1.27,12.63,3.57,18.52,6.4,5.87,2.87,11.48,6.28,16.58,10.32,5.11,4.02,9.83,8.47,14.19,13.23,4.31,4.8,8.18,9.95,11.76,15.27,3.53,5.35,6.67,10.93,9.52,16.65,2.73,5.76,5.26,11.62,7.36,17.63,2.1,6,3.94,12.1,5.35,18.29.78,3.08,1.35,6.2,1.97,9.31.32,1.55.52,3.13.78,4.69.23,1.57.54,3.13.7,4.71,1.58,12.58,2.07,25.31,1.17,37.97l-.37,4.74c-.13,1.58-.36,3.15-.54,4.73-.2,1.57-.34,3.16-.61,4.72l-.76,4.7c-.23,1.57-.54,3.13-.87,4.68l-.95,4.67-1.13,4.63c-.38,1.54-.74,3.09-1.21,4.61-3.48,12.21-8.05,24.15-14.02,35.4-2.91,5.66-6.25,11.09-9.76,16.4-3.53,5.3-7.45,10.35-11.56,15.23-4.21,4.8-8.59,9.46-13.33,13.76-4.78,4.26-9.75,8.31-15.05,11.94-5.3,3.62-10.88,6.86-16.67,9.67-5.83,2.75-11.88,5.06-18.12,6.75-1.57.39-3.12.84-4.7,1.17l-4.76.93c-1.6.25-3.21.44-4.81.66l-1.2.16-1.21.09-2.42.17c-6.47.34-13.04.1-19.41-1.26-6.36-1.39-12.48-3.68-18.12-6.74s-10.84-6.84-15.33-11.28c-4.52-4.4-8.52-9.24-12.03-14.37-3.39-5.21-4.89-8.27-7.42-13.88,3.22,5.25,5.19,7.96,9.06,12.68,3.9,4.69,8.18,9.02,12.87,12.8,9.32,7.64,20.5,12.7,32.13,14.32,5.82.84,11.71.74,17.55.08l2.2-.29,1.1-.14,1.09-.21c1.45-.29,2.9-.55,4.34-.86l4.29-1.1c1.42-.38,2.82-.89,4.22-1.32,5.58-1.91,11.02-4.24,16.24-7.01,5.19-2.83,10.15-6.06,14.92-9.55,4.75-3.53,9.2-7.45,13.46-11.55,4.25-4.13,8.19-8.55,11.95-13.12,1.8-2.36,3.68-4.64,5.35-7.09.84-1.22,1.75-2.39,2.55-3.63l2.44-3.71c3.15-5.01,6.15-10.12,8.74-15.45,5.34-10.57,9.49-21.71,12.57-33.12.42-1.42.75-2.86,1.1-4.29l1.03-4.31.86-4.35c.3-1.45.58-2.9.79-4.36l.69-4.38c.24-1.46.36-2.93.54-4.4.16-1.47.37-2.93.48-4.41l.33-4.42c.91-11.79.47-23.68-.91-35.42-.13-1.47-.4-2.93-.59-4.4-.23-1.46-.39-2.93-.67-4.38-.54-2.91-1.03-5.83-1.72-8.7-1.23-5.79-2.89-11.47-4.7-17.09-1.83-5.62-4.06-11.09-6.46-16.48-2.54-5.32-5.24-10.56-8.34-15.56-3.13-4.97-6.55-9.76-10.29-14.26-3.79-4.46-7.89-8.64-12.33-12.42-8.91-7.5-19.24-13.31-30.49-16.36-5.62-1.51-11.43-2.33-17.31-2.47-5.9-.18-11.8.52-17.6,1.71-11.67,2.29-22.65,7.72-32.53,14.69-4.91,3.56-9.52,7.55-13.87,11.85-4.34,4.31-8.31,9-12.15,13.82h0l.02-.02Z" class="cls-1"/><path d="M184.33,58.66c5.2-10.58,11.6-20.68,19.56-29.52l3.03-3.28c1.01-1.09,2.14-2.06,3.21-3.1l1.63-1.53c.54-.51,1.14-.96,1.7-1.44l3.45-2.85c4.77-3.57,9.82-6.84,15.22-9.46,1.34-.68,2.75-1.2,4.13-1.8l2.08-.87,2.14-.71c1.43-.45,2.85-.99,4.3-1.37l4.39-1.07,1.1-.26,1.11-.18,2.23-.35c1.49-.23,2.98-.49,4.49-.55l4.52-.32c1.51,0,3.03.02,4.55.03,6.07.2,12.14,1.17,18.03,2.86,5.87,1.76,11.54,4.22,16.87,7.27,5.37,3.01,10.33,6.71,14.96,10.75,2.37,1.97,4.49,4.2,6.69,6.36,2.06,2.28,4.18,4.52,6.08,6.94,2,2.34,3.76,4.87,5.6,7.33,1.7,2.56,3.48,5.08,5.01,7.74.78,1.33,1.63,2.61,2.34,3.98l2.21,4.05c.74,1.35,1.37,2.75,2.07,4.12.68,1.38,1.37,2.75,1.97,4.17l1.87,4.22c.59,1.42,1.14,2.86,1.7,4.29l.84,2.15.76,2.18,1.51,4.36,1.36,4.41.67,2.21.6,2.23,1.18,4.46,1.03,4.5c2.7,12.01,4.1,24.29,4.53,36.59.74,24.59-3.03,49.41-11.43,72.45l-1.6,4.31-1.75,4.24-.88,2.12-.95,2.09-1.91,4.17c-2.69,5.49-5.53,10.89-8.78,16.05-6.32,10.42-13.86,20.02-22.29,28.68-4.26,4.29-8.76,8.32-13.5,12.04-4.78,3.66-9.73,7.09-14.96,10.03-5.24,2.91-10.67,5.48-16.28,7.53-5.64,1.98-11.43,3.48-17.31,4.37-1.48.18-2.95.4-4.42.54l-4.44.28c-1.48.07-2.98.02-4.47.03-1.49-.07-2.98-.16-4.46-.27-5.92-.58-11.78-1.95-17.26-4.23-5.5-2.23-10.61-5.31-15.22-8.98-4.59-3.7-8.72-7.93-12.3-12.58,4.16,4.09,8.63,7.79,13.47,10.8,4.8,3.06,9.94,5.47,15.28,7.02s10.81,2.4,16.3,2.45c1.37-.01,2.74-.06,4.11-.1,1.37-.13,2.73-.2,4.09-.38l4.08-.61c1.35-.24,2.7-.57,4.04-.85,5.36-1.25,10.6-2.99,15.66-5.2,5.04-2.27,9.91-4.91,14.58-7.91,4.65-3.04,9.07-6.43,13.32-10.05,4.21-3.67,8.17-7.65,11.97-11.77l2.76-3.19,1.37-1.6,1.31-1.66c.87-1.11,1.76-2.19,2.61-3.32l2.49-3.42c.85-1.12,1.63-2.31,2.42-3.47.78-1.18,1.6-2.32,2.35-3.52,1.48-2.41,3.02-4.78,4.38-7.27,2.86-4.88,5.32-10.01,7.72-15.15l1.68-3.91.84-1.96.77-1.99,1.54-3.98,1.39-4.04c.97-2.67,1.72-5.43,2.57-8.14.44-1.35.75-2.75,1.13-4.12.35-1.38.75-2.75,1.07-4.14l.93-4.17.47-2.09.39-2.1.78-4.21c.26-1.4.42-2.82.64-4.23,1.67-11.28,2.38-22.74,1.96-34.16-.34-11.42-1.62-22.82-4.02-33.96l-.9-4.18-1.04-4.14-.52-2.07-.6-2.05-1.19-4.09-1.34-4.04-.68-2.02-.75-1.99-1.49-3.97-1.63-3.91c-.52-1.32-1.12-2.59-1.72-3.86-.61-1.27-1.16-2.57-1.8-3.82l-1.93-3.75c-.62-1.27-1.37-2.44-2.05-3.67-1.34-2.47-2.9-4.77-4.36-7.16-1.6-2.27-3.11-4.62-4.84-6.78-1.64-2.25-3.47-4.3-5.25-6.41-1.89-1.99-3.74-4.04-5.75-5.88-3.96-3.76-8.2-7.22-12.79-10.05-4.57-2.85-9.38-5.29-14.42-7.09-5.06-1.73-10.3-2.86-15.63-3.39l-4.01-.28-4.05.03c-1.36-.04-2.7.12-4.04.24l-2.02.17-1.01.08-1,.17-4.02.67c-1.34.25-2.64.65-3.97.96l-1.99.5-1.94.66-1.95.66c-.65.23-1.32.4-1.94.69-5.14,1.98-10.06,4.6-14.82,7.57l-3.46,2.41c-.57.41-1.17.79-1.72,1.23l-1.66,1.32c-1.1.9-2.24,1.74-3.31,2.67l-3.2,2.84c-1.1.92-2.07,1.97-3.1,2.98-1,1.03-2.07,1.99-3.02,3.08-1.92,2.15-3.91,4.26-5.69,6.54-3.78,4.42-7.06,9.26-10.38,14.11h.02Z" class="cls-1"/><path d="M2.97,258.21h6.56c3.27,0,5.72,2.02,5.72,5.17,0,1.76-.7,3.38-1.9,4.54s-2.99,1.81-4.82,1.81h-2.83l-.93,5.26H0l2.97-16.77h0ZM9.92,265.3c.37-.42.56-1,.56-1.64,0-1.04-.74-1.64-1.81-1.64h-1.6l-.7,3.98h1.76c.86,0,1.41-.28,1.78-.7h.01Z" class="cls-1"/><path d="M18.05,258.21h6.97c3.03,0,5.28,1.85,5.28,4.75,0,1.3-.39,2.43-1.07,3.36-.67.93-1.64,1.62-2.73,1.99l3.03,6.67h-5.07l-2.53-6.02h-1.07l-1.07,6.02h-4.73l2.97-16.77h.02ZM25.04,264.95c.35-.37.53-.86.53-1.46,0-.9-.65-1.48-1.6-1.48h-1.88l-.63,3.54h2.06c.65,0,1.16-.23,1.51-.6h0Z" class="cls-1"/><path d="M31.09,267.45c0-2.64,1.04-5.03,2.78-6.74,1.71-1.71,4.08-2.76,6.76-2.76,4.82,0,8.25,3.24,8.25,7.78,0,2.64-1.04,5.03-2.78,6.74-1.71,1.71-4.08,2.76-6.77,2.76-4.82,0-8.25-3.24-8.25-7.78h.01ZM42.84,269.52c.79-.9,1.27-2.15,1.27-3.48,0-2.25-1.48-3.87-3.71-3.87-1.34,0-2.48.6-3.27,1.51s-1.27,2.15-1.27,3.48c0,2.25,1.48,3.87,3.71,3.87,1.34,0,2.48-.6,3.27-1.51Z" class="cls-1"/><path d="M52.36,258.21h5.63c4.8,0,8.27,2.83,8.27,7.37,0,2.78-1.07,5.19-2.85,6.88s-4.17,2.53-6.88,2.53h-7.14l2.97-16.77h0ZM56.67,270.95c1.44,0,2.69-.49,3.52-1.44s1.3-2.25,1.3-3.61c0-2.25-1.62-3.66-3.89-3.66h-1.18l-1.53,8.71h1.78Z" class="cls-1"/><path d="M74.55,258.21l-1.58,8.92c-.12.65-.14.93-.14,1.25,0,1.67,1.04,2.57,2.53,2.57,2.02,0,2.73-1.34,3.1-3.43l1.64-9.31h4.59l-1.83,10.38c-.74,4.19-3.66,6.65-7.76,6.65s-7.09-2.25-7.09-6.28c0-.56.07-1.18.19-1.83l1.58-8.92h4.77Z" class="cls-1"/><path d="M93.97,275.24c-4.98,0-8.62-3.22-8.62-7.95,0-2.59,1.14-5,2.9-6.67s4.22-2.66,6.86-2.66c1.97,0,3.98.51,5.4,1.44l-.79,4.47c-1.25-1-2.92-1.67-4.56-1.67-1.48,0-2.73.53-3.61,1.37s-1.41,2.09-1.41,3.38c0,2.41,1.83,4.05,4.59,4.05,1.41,0,2.87-.42,4.08-1.09l-.79,4.52c-1.2.56-2.64.81-4.03.81h-.02Z" class="cls-1"/><path d="M101.96,258.21h15.29l-.72,4.03h-5.26l-2.25,12.74h-4.77l2.25-12.74h-5.26l.72-4.03h0Z" class="cls-1"/><path d="M122.74,268.8c-.86-.39-2.9-1.04-3.87-1.88-.97-.83-1.41-1.78-1.41-3.01,0-3.64,2.62-5.95,6.3-5.95,1.9,0,4.31.65,5.84,1.6l-.74,4.19c-1.95-1.25-4.12-1.83-5.14-1.83-.9,0-1.46.42-1.46,1.14,0,.51.28.79,1.16,1.2s2.87,1.04,3.89,1.9c1,.86,1.44,1.83,1.44,3.08,0,3.68-2.73,6-6.44,6-2.04,0-4.68-.67-6.3-1.67l.79-4.42c1.69,1.25,4.24,2.13,5.58,2.13,1,0,1.58-.51,1.58-1.27,0-.53-.35-.81-1.2-1.2h-.02Z" class="cls-1"/><path d="M131.19,271.18h4.15l-3.57,7.2h-3.13l2.55-7.2h0Z" class="cls-1"/><path d="M145.51,258.21h4.77l-2.97,16.77h-4.77l2.97-16.77Z" class="cls-1"/><path d="M149.94,274.98l2.97-16.77h4.45l2.85,5.17c.86,1.55,1.71,3.13,2.53,4.68l.05-.02c.23-1.51.53-3.34.83-5.05l.83-4.77h4.59l-2.97,16.77h-4.45l-2.85-5.17c-.86-1.55-1.71-3.13-2.53-4.68l-.05.02c-.23,1.51-.53,3.34-.83,5.05l-.83,4.77h-4.59Z" class="cls-1"/><path d="M178.18,275.24c-4.98,0-8.62-3.22-8.62-7.95,0-2.59,1.14-5,2.9-6.67s4.22-2.66,6.86-2.66c1.97,0,3.98.51,5.4,1.44l-.79,4.47c-1.25-1-2.92-1.67-4.56-1.67-1.48,0-2.73.53-3.61,1.37s-1.41,2.09-1.41,3.38c0,2.41,1.83,4.05,4.59,4.05,1.41,0,2.87-.42,4.08-1.09l-.79,4.52c-1.2.56-2.64.81-4.03.81h-.02Z" class="cls-1"/><path d="M187.12,270.28c1.37,0,2.36,1.07,2.36,2.36,0,1.46-1.18,2.59-2.62,2.59s-2.36-1.07-2.36-2.36c0-1.46,1.18-2.59,2.62-2.59Z" class="cls-1"/><path d="M592.99,139.02l-9.78-34.45h-.29c.09.89.18,2.1.28,3.63.1,1.53.19,3.17.28,4.94.09,1.77.13,3.47.13,5.1v20.77h-11.45v-47.83h17.21l9.98,33.96h.26l9.78-33.96h17.24v47.83h-11.88v-20.97c0-1.5.03-3.12.08-4.86.05-1.73.12-3.37.2-4.91.08-1.54.15-2.75.21-3.65h-.29l-9.65,34.38h-12.3Z" class="cls-1"/><path d="M666.27,139.02l-2.36-8.96h-15.54l-2.42,8.96h-14.2l15.61-48.03h17.24l15.8,48.03h-14.13ZM661.23,119.46l-2.06-7.85c-.22-.85-.54-2.07-.95-3.65-.42-1.58-.82-3.22-1.23-4.91-.4-1.69-.71-3.08-.93-4.17-.2,1.09-.47,2.44-.83,4.04-.36,1.6-.73,3.19-1.11,4.76s-.71,2.88-1,3.93l-2.06,7.85h10.17Z" class="cls-1"/><path d="M731.11,139.02h-16.95l-17.47-33.7h-.29c.11,1.03.21,2.26.29,3.7.09,1.44.16,2.91.23,4.4.06,1.49.1,2.84.1,4.04v21.56h-11.45v-47.83h16.88l17.4,33.24h.2c-.07-1.05-.13-2.26-.2-3.65-.07-1.38-.13-2.79-.18-4.2-.05-1.42-.08-2.67-.08-3.76v-21.62h11.52v47.83Z" class="cls-1"/><path d="M782.11,91.19v28.79c0,4.01-.76,7.5-2.29,10.45-1.53,2.96-3.82,5.23-6.87,6.84-3.05,1.6-6.88,2.4-11.48,2.4-6.59,0-11.61-1.69-15.08-5.07-3.47-3.38-5.2-8.16-5.2-14.33v-29.08h12.99v28.07c0,3.38.63,5.83,1.9,7.36,1.26,1.53,3.13,2.29,5.59,2.29,1.77,0,3.21-.33,4.32-1,1.11-.67,1.92-1.72,2.44-3.16.51-1.44.77-3.29.77-5.56v-28h12.92Z" class="cls-1"/><path d="M804.88,139.02h-12.73v-47.83h28.27v10.37h-15.54v9.13h14.33v10.37h-14.33v17.96Z" class="cls-1"/><path d="M857.62,139.02l-2.36-8.96h-15.54l-2.42,8.96h-14.2l15.61-48.03h17.24l15.8,48.03h-14.13ZM852.58,119.46l-2.06-7.85c-.22-.85-.54-2.07-.95-3.65-.42-1.58-.82-3.22-1.23-4.91-.4-1.69-.71-3.08-.93-4.17-.2,1.09-.47,2.44-.83,4.04-.36,1.6-.73,3.19-1.11,4.76s-.71,2.88-1,3.93l-2.06,7.85h10.17Z" class="cls-1"/><path d="M898.22,101.1c-1.53,0-2.89.32-4.09.97-1.2.64-2.22,1.58-3.08,2.8-.85,1.22-1.5,2.71-1.95,4.47-.45,1.76-.67,3.75-.67,5.97,0,3.01.38,5.54,1.15,7.59.76,2.05,1.92,3.6,3.48,4.65s3.52,1.57,5.87,1.57c2.14,0,4.19-.29,6.17-.88s3.96-1.3,5.97-2.13v10.93c-2.12.94-4.28,1.61-6.49,2.03s-4.56.62-7.05.62c-5.19,0-9.44-1.03-12.74-3.09-3.3-2.06-5.74-4.92-7.3-8.59s-2.34-7.92-2.34-12.76c0-3.62.51-6.94,1.52-9.95,1.01-3.01,2.5-5.62,4.46-7.84,1.96-2.21,4.39-3.93,7.28-5.14,2.89-1.21,6.2-1.82,9.93-1.82,2.31,0,4.75.27,7.31.8,2.56.54,5.06,1.39,7.51,2.57l-3.96,10.17c-1.75-.83-3.51-1.53-5.3-2.09-1.79-.57-3.69-.85-5.69-.85Z" class="cls-1"/><path d="M941.5,139.02h-12.92v-37.26h-11.68v-10.57h36.25v10.57h-11.65v37.26Z" class="cls-1"/><path d="M1000.65,91.19v28.79c0,4.01-.76,7.5-2.29,10.45-1.53,2.96-3.82,5.23-6.87,6.84-3.05,1.6-6.88,2.4-11.48,2.4-6.59,0-11.61-1.69-15.08-5.07-3.47-3.38-5.2-8.16-5.2-14.33v-29.08h12.99v28.07c0,3.38.63,5.83,1.9,7.36,1.26,1.53,3.13,2.29,5.59,2.29,1.77,0,3.21-.33,4.32-1,1.11-.67,1.92-1.72,2.44-3.16.51-1.44.77-3.29.77-5.56v-28h12.92Z" class="cls-1"/><path d="M1026.36,91.19c4.34,0,7.95.53,10.83,1.59,2.88,1.06,5.04,2.63,6.49,4.73,1.45,2.09,2.18,4.7,2.18,7.82,0,1.94-.33,3.71-.98,5.3-.65,1.59-1.59,3.02-2.8,4.27-1.21,1.25-2.66,2.35-4.33,3.29l13.94,20.84h-14.66l-10.14-17.4h-3.27v17.4h-12.92v-47.83h15.67ZM1026.16,100.97h-2.55v10.93h2.42c1.98,0,3.61-.44,4.88-1.31,1.26-.87,1.9-2.43,1.9-4.68,0-1.55-.52-2.76-1.57-3.63-1.05-.87-2.74-1.31-5.07-1.31Z" class="cls-1"/><path d="M1056.03,139.02v-47.83h12.99v47.83h-12.99Z" class="cls-1"/><path d="M1124.9,139.02h-16.95l-17.47-33.7h-.29c.11,1.03.21,2.26.29,3.7.09,1.44.16,2.91.23,4.4.06,1.49.1,2.84.1,4.04v21.56h-11.45v-47.83h16.88l17.4,33.24h.2c-.07-1.05-.13-2.26-.2-3.65-.07-1.38-.13-2.79-.18-4.2-.05-1.42-.08-2.67-.08-3.76v-21.62h11.52v47.83Z" class="cls-1"/><path d="M1154.44,111.02h20.64v25.78c-2.46.85-5.29,1.54-8.47,2.08-3.19.53-6.52.8-10.01.8-4.6,0-8.64-.89-12.1-2.68-3.47-1.79-6.17-4.51-8.11-8.16-1.94-3.65-2.91-8.27-2.91-13.85,0-5.02.96-9.35,2.88-13,1.92-3.65,4.75-6.48,8.49-8.47,3.74-2,8.33-2.99,13.76-2.99,2.99,0,5.82.28,8.51.85,2.68.57,5.02,1.29,7,2.16l-4.09,10.14c-1.72-.85-3.51-1.49-5.37-1.91-1.85-.43-3.85-.64-5.99-.64-2.86,0-5.15.64-6.89,1.93-1.73,1.29-2.99,3-3.78,5.15-.79,2.15-1.18,4.52-1.18,7.12,0,2.97.42,5.47,1.26,7.51.84,2.04,2.07,3.59,3.7,4.65,1.62,1.06,3.59,1.59,5.91,1.59.76,0,1.7-.05,2.8-.16,1.1-.11,1.94-.24,2.5-.39v-7.49h-8.54v-9.98Z" class="cls-1"/><path d="M1218.79,91.19c6.06,0,10.6,1.32,13.63,3.96,3.02,2.64,4.53,6.39,4.53,11.25,0,2.18-.31,4.27-.93,6.28-.62,2.01-1.64,3.79-3.04,5.37-1.41,1.57-3.27,2.81-5.59,3.73-2.32.92-5.19,1.37-8.59,1.37h-3.63v15.87h-12.92v-47.83h16.55ZM1218.49,101.63h-3.34v10.99h2.55c1.11,0,2.15-.19,3.11-.57.96-.38,1.73-1,2.31-1.86.58-.86.87-2.01.87-3.45s-.45-2.73-1.34-3.68c-.89-.95-2.28-1.42-4.16-1.42Z" class="cls-1"/><path d="M1260.24,91.19c4.34,0,7.95.53,10.83,1.59,2.88,1.06,5.04,2.63,6.49,4.73,1.45,2.09,2.18,4.7,2.18,7.82,0,1.94-.33,3.71-.98,5.3-.65,1.59-1.59,3.02-2.8,4.27-1.21,1.25-2.66,2.35-4.33,3.29l13.94,20.84h-14.66l-10.14-17.4h-3.27v17.4h-12.92v-47.83h15.67ZM1260.04,100.97h-2.55v10.93h2.42c1.98,0,3.61-.44,4.88-1.31,1.26-.87,1.9-2.43,1.9-4.68,0-1.55-.52-2.76-1.57-3.63-1.05-.87-2.74-1.31-5.07-1.31Z" class="cls-1"/><path d="M1318.31,139.02h-28.4v-47.83h28.4v10.37h-15.47v7.52h14.33v10.37h-14.33v9.03h15.47v10.53Z" class="cls-1"/><path d="M1347.98,101.1c-1.53,0-2.89.32-4.09.97-1.2.64-2.22,1.58-3.08,2.8-.85,1.22-1.5,2.71-1.95,4.47-.45,1.76-.67,3.75-.67,5.97,0,3.01.38,5.54,1.15,7.59.76,2.05,1.92,3.6,3.48,4.65s3.52,1.57,5.87,1.57c2.14,0,4.19-.29,6.17-.88s3.96-1.3,5.97-2.13v10.93c-2.12.94-4.28,1.61-6.49,2.03s-4.56.62-7.05.62c-5.19,0-9.44-1.03-12.74-3.09-3.3-2.06-5.74-4.92-7.3-8.59s-2.34-7.92-2.34-12.76c0-3.62.51-6.94,1.52-9.95,1.01-3.01,2.5-5.62,4.46-7.84,1.96-2.21,4.39-3.93,7.28-5.14,2.89-1.21,6.2-1.82,9.93-1.82,2.31,0,4.75.27,7.31.8,2.56.54,5.06,1.39,7.51,2.57l-3.96,10.17c-1.75-.83-3.51-1.53-5.3-2.09-1.79-.57-3.69-.85-5.69-.85Z" class="cls-1"/><path d="M1370.16,139.02v-47.83h12.99v47.83h-12.99Z" class="cls-1"/><path d="M1424.76,124.49c0,2.6-.65,5.05-1.96,7.38-1.31,2.32-3.34,4.2-6.1,5.64s-6.32,2.16-10.68,2.16c-2.18,0-4.1-.1-5.74-.29s-3.18-.52-4.6-.97c-1.42-.45-2.89-1.03-4.42-1.75v-11.52c2.59,1.31,5.21,2.31,7.85,2.99,2.64.69,5.03,1.03,7.17,1.03,1.29,0,2.34-.15,3.16-.46.82-.31,1.42-.72,1.82-1.26.39-.53.59-1.15.59-1.85,0-.83-.29-1.53-.87-2.11-.58-.58-1.5-1.18-2.76-1.82-1.27-.63-2.93-1.42-5.01-2.36-1.77-.83-3.36-1.68-4.79-2.55-1.43-.87-2.65-1.87-3.66-2.99-1.01-1.12-1.79-2.44-2.34-3.94-.55-1.5-.82-3.28-.82-5.33,0-3.08.76-5.65,2.27-7.74,1.52-2.08,3.63-3.65,6.35-4.69,2.72-1.05,5.85-1.57,9.41-1.57,3.12,0,5.93.35,8.42,1.05,2.5.7,4.74,1.49,6.72,2.39l-3.96,9.98c-2.05-.94-4.07-1.69-6.05-2.24-1.99-.56-3.83-.83-5.53-.83-1.11,0-2.02.14-2.73.41-.71.27-1.23.64-1.57,1.1s-.51.98-.51,1.57c0,.74.29,1.41.87,2,.58.59,1.55,1.23,2.91,1.91,1.36.69,3.22,1.58,5.58,2.67,2.33,1.05,4.32,2.18,5.95,3.39,1.64,1.21,2.88,2.66,3.75,4.35.86,1.69,1.29,3.78,1.29,6.26Z" class="cls-1"/><path d="M1432.15,139.02v-47.83h12.99v47.83h-12.99Z" class="cls-1"/><path d="M1500.23,115.04c0,3.69-.44,7.04-1.33,10.06-.88,3.02-2.26,5.62-4.14,7.8-1.88,2.18-4.29,3.86-7.23,5.02-2.94,1.17-6.47,1.75-10.57,1.75s-7.49-.58-10.42-1.75c-2.93-1.17-5.35-2.83-7.25-5.01-1.9-2.17-3.3-4.77-4.22-7.8-.92-3.03-1.37-6.41-1.37-10.14,0-4.97.82-9.3,2.47-12.97,1.65-3.67,4.19-6.52,7.64-8.54,3.45-2.02,7.85-3.03,13.22-3.03s9.88,1.01,13.3,3.04,5.92,4.89,7.51,8.57c1.59,3.69,2.39,8.02,2.39,12.99ZM1467.32,115.04c0,2.88.33,5.35.98,7.43.65,2.07,1.69,3.66,3.11,4.78,1.42,1.11,3.27,1.67,5.56,1.67s4.27-.56,5.68-1.67c1.41-1.11,2.42-2.7,3.04-4.78.62-2.07.93-4.55.93-7.43,0-4.32-.72-7.73-2.16-10.24-1.44-2.51-3.92-3.76-7.43-3.76-2.33,0-4.22.57-5.64,1.7-1.43,1.13-2.46,2.75-3.11,4.84s-.96,4.58-.96,7.46Z" class="cls-1"/><path d="M1554.41,139.02h-16.95l-17.47-33.7h-.29c.11,1.03.21,2.26.29,3.7.09,1.44.16,2.91.23,4.4.06,1.49.1,2.84.1,4.04v21.56h-11.45v-47.83h16.88l17.4,33.24h.2c-.07-1.05-.13-2.26-.2-3.65-.07-1.38-.13-2.79-.18-4.2-.05-1.42-.08-2.67-.08-3.76v-21.62h11.52v47.83Z" class="cls-1"/><path d="M584.87,210.02h-12.73v-47.83h28.27v10.37h-15.54v9.13h14.33v10.37h-14.33v17.96Z" class="cls-1"/><path d="M636.66,210.02h-28.4v-47.83h28.4v10.37h-15.47v7.52h14.33v10.37h-14.33v9.03h15.47v10.53Z" class="cls-1"/><path d="M673.43,210.02h-28.4v-47.83h28.4v10.37h-15.47v7.52h14.33v10.37h-14.33v9.03h15.47v10.53Z" class="cls-1"/><path d="M722.41,185.09c0,5.56-1.04,10.19-3.11,13.87-2.07,3.69-4.99,6.45-8.75,8.29-3.76,1.84-8.18,2.76-13.27,2.76h-15.47v-47.83h16.55c5.15,0,9.51.88,13.09,2.65,3.58,1.77,6.3,4.35,8.16,7.75,1.87,3.4,2.8,7.57,2.8,12.5ZM708.99,185.55c0-2.9-.39-5.3-1.16-7.21-.77-1.91-1.94-3.34-3.48-4.29-1.55-.95-3.5-1.42-5.86-1.42h-3.76v26.79h2.88c3.93,0,6.8-1.14,8.64-3.42,1.83-2.28,2.75-5.76,2.75-10.45Z" class="cls-1"/><path d="M752.08,210.02h-12.92v-37.26h-11.68v-10.57h36.25v10.57h-11.65v37.26Z" class="cls-1"/><path d="M811.55,210.02h-12.99v-19.5h-15.02v19.5h-12.99v-47.83h12.99v17.73h15.02v-17.73h12.99v47.83Z" class="cls-1"/><path d="M837.56,162.19c4.34,0,7.95.53,10.83,1.59,2.88,1.06,5.04,2.63,6.49,4.73,1.45,2.09,2.18,4.7,2.18,7.82,0,1.94-.33,3.71-.98,5.3-.65,1.59-1.59,3.02-2.8,4.27-1.21,1.25-2.66,2.35-4.33,3.29l13.94,20.84h-14.66l-10.14-17.4h-3.27v17.4h-12.92v-47.83h15.67ZM837.37,171.97h-2.55v10.93h2.42c1.98,0,3.61-.44,4.88-1.31,1.26-.87,1.9-2.43,1.9-4.68,0-1.55-.52-2.76-1.57-3.63s-2.74-1.31-5.07-1.31Z" class="cls-1"/><path d="M911.99,186.04c0,3.69-.44,7.04-1.33,10.06-.88,3.02-2.26,5.62-4.14,7.8s-4.29,3.85-7.23,5.02c-2.94,1.17-6.47,1.75-10.57,1.75s-7.49-.58-10.42-1.75c-2.93-1.17-5.35-2.83-7.25-5.01-1.9-2.17-3.3-4.77-4.22-7.8-.92-3.03-1.37-6.41-1.37-10.14,0-4.97.82-9.3,2.47-12.97,1.65-3.67,4.19-6.52,7.64-8.54,3.45-2.02,7.85-3.03,13.22-3.03s9.88,1.01,13.3,3.04,5.92,4.89,7.51,8.57c1.59,3.69,2.39,8.01,2.39,12.99ZM879.08,186.04c0,2.88.33,5.36.98,7.43.65,2.07,1.69,3.66,3.11,4.78,1.42,1.11,3.27,1.67,5.56,1.67s4.27-.56,5.68-1.67c1.41-1.11,2.42-2.7,3.04-4.78.62-2.07.93-4.55.93-7.43,0-4.32-.72-7.73-2.16-10.24-1.44-2.51-3.92-3.76-7.43-3.76-2.33,0-4.22.57-5.64,1.7-1.43,1.13-2.46,2.75-3.11,4.84-.64,2.09-.96,4.58-.96,7.46Z" class="cls-1"/><path d="M961.29,162.19v28.79c0,4.01-.76,7.5-2.29,10.45-1.53,2.96-3.82,5.23-6.87,6.84-3.05,1.6-6.88,2.4-11.48,2.4-6.59,0-11.61-1.69-15.08-5.07-3.47-3.38-5.2-8.16-5.2-14.33v-29.08h12.99v28.07c0,3.38.63,5.83,1.9,7.36,1.26,1.53,3.13,2.29,5.59,2.29,1.77,0,3.21-.33,4.32-1s1.92-1.72,2.44-3.16c.51-1.44.77-3.29.77-5.56v-28h12.92Z" class="cls-1"/><path d="M990.54,182.02h20.64v25.78c-2.46.85-5.29,1.54-8.47,2.08-3.19.53-6.52.8-10.01.8-4.6,0-8.64-.89-12.1-2.68-3.47-1.79-6.17-4.51-8.11-8.16-1.94-3.65-2.91-8.27-2.91-13.85,0-5.02.96-9.35,2.88-13,1.92-3.65,4.75-6.48,8.49-8.47,3.74-2,8.33-2.99,13.76-2.99,2.99,0,5.82.28,8.51.85s5.02,1.29,7,2.16l-4.09,10.14c-1.72-.85-3.51-1.49-5.37-1.91-1.85-.43-3.85-.64-5.99-.64-2.86,0-5.15.64-6.89,1.93-1.73,1.29-2.99,3-3.78,5.15-.79,2.15-1.18,4.52-1.18,7.12,0,2.97.42,5.47,1.26,7.51.84,2.04,2.07,3.59,3.7,4.65s3.59,1.59,5.91,1.59c.76,0,1.7-.05,2.8-.16,1.1-.11,1.94-.24,2.5-.39v-7.49h-8.54v-9.98Z" class="cls-1"/><path d="M1061.92,210.02h-12.99v-19.5h-15.02v19.5h-12.99v-47.83h12.99v17.73h15.02v-17.73h12.99v47.83Z" class="cls-1"/><path d="M1106.22,162.19c6.06,0,10.6,1.32,13.63,3.96,3.02,2.64,4.53,6.39,4.53,11.25,0,2.18-.31,4.27-.93,6.28-.62,2.01-1.64,3.79-3.04,5.37-1.41,1.57-3.27,2.81-5.59,3.73-2.32.92-5.19,1.37-8.59,1.37h-3.63v15.87h-12.92v-47.83h16.55ZM1105.92,172.63h-3.34v10.99h2.55c1.11,0,2.15-.19,3.11-.57.96-.38,1.73-1,2.31-1.86.58-.86.87-2.01.87-3.45s-.45-2.73-1.34-3.68c-.89-.95-2.28-1.42-4.16-1.42Z" class="cls-1"/><path d="M1147.67,162.19c4.34,0,7.95.53,10.83,1.59,2.88,1.06,5.04,2.63,6.49,4.73,1.45,2.09,2.18,4.7,2.18,7.82,0,1.94-.33,3.71-.98,5.3-.65,1.59-1.59,3.02-2.8,4.27-1.21,1.25-2.66,2.35-4.33,3.29l13.94,20.84h-14.66l-10.14-17.4h-3.27v17.4h-12.92v-47.83h15.67ZM1147.47,171.97h-2.55v10.93h2.42c1.98,0,3.61-.44,4.88-1.31,1.26-.87,1.9-2.43,1.9-4.68,0-1.55-.52-2.76-1.57-3.63s-2.74-1.31-5.07-1.31Z" class="cls-1"/><path d="M1222.09,186.04c0,3.69-.44,7.04-1.33,10.06-.88,3.02-2.26,5.62-4.14,7.8s-4.29,3.85-7.23,5.02c-2.94,1.17-6.47,1.75-10.57,1.75s-7.49-.58-10.42-1.75c-2.93-1.17-5.35-2.83-7.25-5.01-1.9-2.17-3.3-4.77-4.22-7.8-.92-3.03-1.37-6.41-1.37-10.14,0-4.97.82-9.3,2.47-12.97,1.65-3.67,4.19-6.52,7.64-8.54,3.45-2.02,7.85-3.03,13.22-3.03s9.88,1.01,13.3,3.04,5.92,4.89,7.51,8.57c1.59,3.69,2.39,8.01,2.39,12.99ZM1189.18,186.04c0,2.88.33,5.36.98,7.43.65,2.07,1.69,3.66,3.11,4.78,1.42,1.11,3.27,1.67,5.56,1.67s4.27-.56,5.68-1.67c1.41-1.11,2.42-2.7,3.04-4.78.62-2.07.93-4.55.93-7.43,0-4.32-.72-7.73-2.16-10.24-1.44-2.51-3.92-3.76-7.43-3.76-2.33,0-4.22.57-5.64,1.7-1.43,1.13-2.46,2.75-3.11,4.84-.64,2.09-.96,4.58-.96,7.46Z" class="cls-1"/><path d="M1271.33,185.09c0,5.56-1.04,10.19-3.11,13.87-2.07,3.69-4.99,6.45-8.75,8.29-3.76,1.84-8.18,2.76-13.27,2.76h-15.47v-47.83h16.55c5.15,0,9.51.88,13.09,2.65,3.58,1.77,6.3,4.35,8.16,7.75,1.87,3.4,2.8,7.57,2.8,12.5ZM1257.92,185.55c0-2.9-.39-5.3-1.16-7.21-.77-1.91-1.94-3.34-3.48-4.29-1.55-.95-3.5-1.42-5.86-1.42h-3.76v26.79h2.88c3.93,0,6.8-1.14,8.64-3.42,1.83-2.28,2.75-5.76,2.75-10.45Z" class="cls-1"/><path d="M1320.56,162.19v28.79c0,4.01-.76,7.5-2.29,10.45-1.53,2.96-3.82,5.23-6.87,6.84-3.05,1.6-6.88,2.4-11.48,2.4-6.59,0-11.61-1.69-15.08-5.07-3.47-3.38-5.2-8.16-5.2-14.33v-29.08h12.99v28.07c0,3.38.63,5.83,1.9,7.36,1.26,1.53,3.13,2.29,5.59,2.29,1.77,0,3.21-.33,4.32-1s1.92-1.72,2.44-3.16c.51-1.44.77-3.29.77-5.56v-28h12.92Z" class="cls-1"/><path d="M1351.91,172.1c-1.53,0-2.89.32-4.09.96-1.2.64-2.22,1.58-3.08,2.8-.85,1.22-1.5,2.71-1.95,4.47-.45,1.76-.67,3.75-.67,5.97,0,3.01.38,5.54,1.15,7.59.76,2.05,1.92,3.6,3.48,4.65s3.52,1.57,5.87,1.57c2.14,0,4.19-.29,6.17-.88s3.96-1.3,5.97-2.13v10.93c-2.12.94-4.28,1.62-6.49,2.03-2.21.41-4.56.62-7.05.62-5.19,0-9.44-1.03-12.74-3.09-3.3-2.06-5.74-4.92-7.3-8.59s-2.34-7.92-2.34-12.76c0-3.62.51-6.94,1.52-9.95,1.01-3.01,2.5-5.62,4.46-7.84,1.96-2.21,4.39-3.93,7.28-5.14,2.89-1.21,6.2-1.82,9.93-1.82,2.31,0,4.75.27,7.31.8,2.56.54,5.06,1.39,7.51,2.57l-3.96,10.17c-1.75-.83-3.51-1.53-5.3-2.09s-3.69-.85-5.69-.85Z" class="cls-1"/><path d="M1395.19,210.02h-12.92v-37.26h-11.68v-10.57h36.25v10.57h-11.65v37.26Z" class="cls-1"/><path d="M1444.95,195.49c0,2.6-.65,5.05-1.96,7.38-1.31,2.32-3.34,4.2-6.1,5.64s-6.32,2.16-10.68,2.16c-2.18,0-4.1-.1-5.74-.29-1.65-.2-3.18-.52-4.6-.96-1.42-.45-2.89-1.03-4.42-1.75v-11.52c2.59,1.31,5.21,2.31,7.85,2.99,2.64.69,5.03,1.03,7.17,1.03,1.29,0,2.34-.15,3.16-.46.82-.31,1.42-.73,1.82-1.26s.59-1.15.59-1.85c0-.83-.29-1.53-.87-2.11-.58-.58-1.5-1.18-2.76-1.82-1.27-.63-2.93-1.42-5.01-2.36-1.77-.83-3.36-1.68-4.79-2.55-1.43-.87-2.65-1.87-3.66-2.99-1.01-1.12-1.79-2.44-2.34-3.94-.55-1.5-.82-3.28-.82-5.33,0-3.08.76-5.65,2.27-7.74,1.52-2.08,3.63-3.65,6.35-4.69,2.72-1.05,5.85-1.57,9.41-1.57,3.12,0,5.93.35,8.42,1.05,2.5.7,4.74,1.49,6.72,2.39l-3.96,9.98c-2.05-.94-4.07-1.69-6.05-2.24-1.99-.56-3.83-.83-5.53-.83-1.11,0-2.02.14-2.73.41-.71.27-1.23.64-1.57,1.1s-.51.98-.51,1.57c0,.74.29,1.41.87,2,.58.59,1.55,1.23,2.91,1.91,1.36.69,3.22,1.58,5.58,2.67,2.33,1.05,4.32,2.18,5.95,3.39,1.64,1.21,2.88,2.66,3.75,4.35.86,1.69,1.29,3.78,1.29,6.26Z" class="cls-1"/></svg>